<?xml version="1.0" encoding="UTF-8"?>
<svg id="Layer_2" data-name="Layer 2" xmlns="http://www.w3.org/2000/svg" viewBox="0 0 146.34 38.42">
  <g id="Layer_1-2" data-name="Layer 1">
    <g>
      <path d="m36.33.7c.43,0,.54-.16.54-.38,0-.16-.05-.32-.48-.32h-10.97c-.43,0-.54.16-.54.38,0,.16.05.32.48.32h.86c2.94,0,3.96,3.37.8,9.95l-9.74,20.39h-.11L12.95,3c-.32-2.03-.05-2.3.86-2.3h1.98c.43,0,.54-.16.54-.38,0-.16-.05-.32-.48-.32H.59C.11,0,0,.16,0,.38c0,.16.05.32.48.32h1.07c.86,0,1.02.16,1.39,2.3l5.78,34.73c.05.21.11.32.48.32h5.19c.32,0,.43-.05.54-.32l12.95-26.97C32,2.3,34.36.7,36.17.7h.16Z"/>
      <path d="m146.1,29.75c-.21,0-.26.11-.32.38-.27,1.76-.85,3.42-1.66,4.6-.48.75-1.07,1.34-1.82,1.34s-1.07-.64-1.07-1.39c0-.7.11-1.5.27-2.25l1.61-9.15c.21-1.13.43-2.3.43-3.43,0-3.42-2.68-5.24-5.84-5.24-2.57,0-4.39,1.02-5.72,2.83-.91,1.24-2.37,7.03-2.68,8.59-.34,1.75-1.5,7.52-2.3,8.7-.49.75-1.07,1.34-1.82,1.34s-1.07-.64-1.07-1.39c0-.7.16-1.5.26-2.25l1.56-8.78c.16-.91.32-1.82.32-2.67,0-4.18-3.48-6.37-7.28-6.37-4.23,0-6.58,2.14-7.81,5.62h-.06c0-.75-.16-1.61-.42-2.2-.75-2.3-2.89-3.42-5.25-3.42-2.62,0-4.42,1.03-5.78,2.83-1.05,1.39-2.06,7.17-2.34,8.72-.31,1.77-1.78,7.39-2.59,8.57-.48.75-1.12,1.34-1.87,1.34s-1.01-.64-1.01-1.39c0-.7.1-1.5.26-2.25l2.95-16.7c.05-.32-.06-.48-.38-.48h-7.86c-.43,0-.49.11-.54.43l-.37,2.09h-.06c-.48-2.2-2.62-3.16-5.19-3.16-2.94,0-5.67.91-8.08,2.83-1.71,1.42-2.94,3.22-3.79,5.18-.03.05-.05.09-.09.16-1.05,2.57-4.2,10.77-5,11.95-.48.75-1.07,1.34-1.82,1.34s-1.07-.64-1.07-1.39c0-.7.11-1.5.27-2.25l1.61-9.15c.21-1.12.43-2.3.43-3.42,0-3.42-2.68-5.24-5.83-5.24-2.57,0-4.39,1.02-5.73,2.84-.91,1.23-1.96,7-2.28,8.55-.27,1.77-1.9,7.56-2.7,8.74-.48.75-1.07,1.34-1.82,1.34-.8,0-1.07-.64-1.07-1.39,0-.7.11-1.5.27-2.25L49.56.48c.05-.32-.05-.48-.38-.48h-10.86c-.48,0-.59.11-.59.32,0,.16.05.27.48.27h1.82c.54,0,.59.11.27,2.03l-4.76,27.08c-.21,1.12-.43,2.35-.43,3.48,0,3.37,2.67,5.25,5.83,5.25,2.57,0,4.45-.98,5.73-2.84,1.42-2.06,2.73-7.57,3.05-9.55.27-1.28,1.23-6.66,1.93-7.73.48-.75,1.07-1.34,1.82-1.34.8,0,1.07.64,1.07,1.39,0,.7-.11,1.5-.27,2.19l-1.61,9.15c-.21,1.12-.43,2.35-.43,3.48,0,3.37,2.68,5.25,5.83,5.25,2.57,0,4.34-1.06,5.73-2.84,1.1-1.42,3.72-8.35,3.72-8.35,0,0-.18,1.65-.18,2.46,0,5.4,3.8,8.72,8.45,8.72,4.02,0,6.37-2.25,7.55-5.62h.05c.05.75.21,1.61.43,2.2.75,2.3,2.83,3.42,5.3,3.42s4.32-1.07,5.72-2.83c1.49-1.88,2.64-7.73,3-9.71.5-2.67,1.23-6.51,1.93-7.58.48-.75,1.12-1.34,1.87-1.34s1.07.65,1.07,1.39c0,.7-.16,1.5-.27,2.2l-2.99,16.85c-.06.22.05.38.43.38h7.92c.37,0,.48-.11.53-.38l2.41-13.91c.69-3.69,2.73-7.49,5.24-7.49,1.23,0,1.82,1.02,1.82,2.35s-.27,2.79-.48,4.02l-1.28,7.33c-.22,1.12-.49,2.35-.49,3.48,0,3.37,2.68,5.24,5.84,5.24,2.57,0,4.39-1.02,5.72-2.83,1.07-1.4,2.33-7.51,2.72-9.49.26-1.28,1.57-6.73,2.26-7.8.48-.75,1.07-1.34,1.82-1.34.81,0,1.07.65,1.07,1.39,0,.7-.1,1.5-.26,2.2l-1.61,9.15c-.21,1.12-.43,2.35-.43,3.48,0,3.37,2.68,5.24,5.84,5.24,2.56,0,4.38-1.02,5.72-2.83,1.07-1.4,1.77-3.32,2.09-5.3.05-.38,0-.54-.22-.54Zm-60.69-9.84l-1.65,9.63c-.7,3.74-2.79,7.49-5.2,7.49-1.28,0-2.08-1.12-2.08-3.48,0-3.32.85-8.08,1.82-11.93.91-3.69,1.82-6.21,4.12-6.21,2.14,0,3.37,2.25,2.99,4.5Z"/>
      <path d="m141.24,9.97c2.64,0,4.78-2.14,4.78-4.78s-2.14-4.78-4.78-4.78-4.78,2.14-4.78,4.78,2.14,4.78,4.78,4.78Z"/>
      <path d="m61.22,9.97c2.64,0,4.78-2.14,4.78-4.78S63.86.41,61.22.41s-4.78,2.14-4.78,4.78,2.14,4.78,4.78,4.78Z"/>
    </g>
  </g>
</svg>