<?xml version="1.0" encoding="utf-8"?>
<!-- Generator: Adobe Adobe Illustrator 24.2.0, SVG Export Plug-In . SVG Version: 6.00 Build 0)  -->
<svg version="1.1" id="Layer_1" xmlns="http://www.w3.org/2000/svg" xmlns:xlink="http://www.w3.org/1999/xlink" x="0px" y="0px"
	 width="1260px" height="268.4px" viewBox="0 0 1260 268.4" style="enable-background:new 0 0 1260 268.4;" xml:space="preserve">
<style type="text/css">
	.st0{fill:none;stroke:#FFFFFF;stroke-width:11;stroke-miterlimit:10;}
	.st1{fill:none;stroke:#FFFFFF;stroke-width:11;stroke-linecap:round;}
	.st2{fill:none;}
	.st3{fill:#FFFFFF;}
	.st4{font-family:'EurostileExt-Med';}
	.st5{font-size:135.625px;}
	.st6{letter-spacing:4;}
</style>
<ellipse class="st0" cx="107.4" cy="131.8" rx="94.4" ry="94.2"/>
<path class="st0" d="M108.3,132.9c-1.5,0-2.7-1.2-2.7-2.7c0,0,0,0,0,0"/>
<path class="st0" d="M112.6,128.5c0,2.4-2,4.4-4.4,4.4l0,0"/>
<path class="st0" d="M105.5,121.4c3.9,0,7.1,3.2,7.1,7.1"/>
<path class="st0" d="M94.1,132.9c0-6.4,5.1-11.5,11.5-11.5c0,0,0,0,0,0"/>
<path class="st0" d="M112.7,151.4c-10.3,0-18.6-8.3-18.6-18.6c0,0,0,0,0,0"/>
<path class="st0" d="M142.6,121.2c0.1,16.6-13.3,30.1-29.9,30.2c-0.1,0-0.1,0-0.2,0"/>
<path class="st0" d="M93.9,72.8c26.9,0,48.6,21.8,48.6,48.7c0,0,0,0,0,0.1"/>
<path class="st0" d="M15.7,151.8c0-43.6,35.2-78.9,78.6-78.9c0,0,0.1,0,0.1,0"/>
<path class="st1" d="M108.3,132.9c-1.5,0-2.7-1.2-2.7-2.7c0,0,0,0,0,0"/>
<path class="st1" d="M112.6,128.5c0,2.4-2,4.4-4.4,4.4l0,0"/>
<path class="st1" d="M105.5,121.4c3.9,0,7.1,3.2,7.1,7.1"/>
<path class="st1" d="M94.1,132.9c0-6.4,5.1-11.5,11.5-11.5c0,0,0,0,0,0"/>
<path class="st1" d="M112.7,151.4c-10.3,0-18.6-8.3-18.6-18.6c0,0,0,0,0,0"/>
<path class="st1" d="M142.6,121.2c0.1,16.6-13.3,30.1-29.9,30.2c-0.1,0-0.1,0-0.2,0"/>
<path class="st1" d="M93.9,72.8c26.9,0,48.6,21.8,48.6,48.7c0,0,0,0,0,0.1"/>
<path class="st1" d="M15.7,151.8c0-43.6,35.2-78.9,78.6-78.9c0,0,0.1,0,0.1,0"/>
<rect x="244.2" y="97.2" class="st2" width="1040" height="171.2"/>
<text transform="matrix(1.24 0 0 1.84 244.1617 187.9526)" class="st3 st4 st5 st6">rentaflop</text>
</svg>
