<svg xmlns="http://www.w3.org/2000/svg" viewBox="0 0 602 191"><defs><style>.cls-1{fill:#434343;}.cls-1,.cls-2{stroke:#231f20;}.cls-1,.cls-2,.cls-4{stroke-miterlimit:10;}.cls-1,.cls-3,.cls-4{stroke-width:3px;}.cls-2,.cls-3,.cls-4{fill:none;}.cls-2{stroke-width:2px;}.cls-3,.cls-4{stroke:#faa629;stroke-linecap:round;}</style></defs><g id="Layer_2" data-name="Layer 2"><g id="logo"><circle class="cls-1" cx="95.5" cy="95.5" r="94"/><circle class="cls-1" cx="301.5" cy="95.5" r="94"/><circle class="cls-1" cx="506.5" cy="95.5" r="94"/><path class="cls-2" d="M507.75,96.63A2.71,2.71,0,0,1,505,93.92"/><path class="cls-2" d="M512.11,92.24a4.39,4.39,0,0,1-4.39,4.39"/><path class="cls-2" d="M505,85.19a7.1,7.1,0,0,1,7.1,7.1"/><path class="cls-2" d="M493.6,96.69a11.47,11.47,0,0,1,11.48-11.48"/><path class="cls-2" d="M512.2,115.14a18.57,18.57,0,0,1-18.58-18.58"/><path class="cls-2" d="M542.06,85A30,30,0,0,1,512,115.11"/><path class="cls-2" d="M493.35,36.73A48.63,48.63,0,0,1,542,85.39"/><path class="cls-2" d="M415.18,115.54A78.69,78.69,0,0,1,493.91,36.8"/><path class="cls-3" d="M507.75,96.63A2.71,2.71,0,0,1,505,93.92"/><path class="cls-3" d="M512.11,92.24a4.39,4.39,0,0,1-4.39,4.39"/><path class="cls-3" d="M505,85.19a7.1,7.1,0,0,1,7.1,7.1"/><path class="cls-3" d="M493.6,96.69a11.47,11.47,0,0,1,11.48-11.48"/><path class="cls-3" d="M512.2,115.14a18.57,18.57,0,0,1-18.58-18.58"/><path class="cls-3" d="M542.06,85A30,30,0,0,1,512,115.11"/><path class="cls-3" d="M493.35,36.73A48.63,48.63,0,0,1,542,85.39"/><path class="cls-3" d="M415.18,115.54A78.69,78.69,0,0,1,493.91,36.8"/><path class="cls-4" d="M302.64,96a2.71,2.71,0,0,1-2.71-2.71"/><path class="cls-4" d="M307,91.61A4.38,4.38,0,0,1,302.61,96"/><path class="cls-4" d="M299.89,84.57a7.09,7.09,0,0,1,7.1,7.09"/><path class="cls-4" d="M288.49,96.06A11.47,11.47,0,0,1,300,84.58"/><path class="cls-4" d="M307.09,114.51A18.58,18.58,0,0,1,288.5,95.93"/><path class="cls-4" d="M337,84.42a30.06,30.06,0,0,1-30.08,30.07"/><path class="cls-4" d="M288.24,36.1A48.63,48.63,0,0,1,336.9,84.76"/><path class="cls-4" d="M210.06,114.91A78.7,78.7,0,0,1,288.8,36.17"/><path class="cls-4" d="M96.49,96a2.71,2.71,0,0,1-2.71-2.71"/><path class="cls-4" d="M100.85,91.61A4.38,4.38,0,0,1,96.46,96"/><path class="cls-4" d="M93.75,84.57a7.08,7.08,0,0,1,7.09,7.09"/><path class="cls-4" d="M82.34,96.06A11.48,11.48,0,0,1,93.83,84.58"/><path class="cls-4" d="M100.94,114.51A18.57,18.57,0,0,1,82.36,95.93"/><path class="cls-4" d="M130.8,84.42a30.05,30.05,0,0,1-30.07,30.07"/><path class="cls-4" d="M82.1,36.1a48.63,48.63,0,0,1,48.66,48.66"/><path class="cls-4" d="M3.92,114.91A78.7,78.7,0,0,1,82.66,36.17"/></g></g></svg>