<?xml version="1.0" encoding="UTF-8" standalone="no" ?>
<!DOCTYPE svg PUBLIC "-//W3C//DTD SVG 1.1//EN" "http://www.w3.org/Graphics/SVG/1.1/DTD/svg11.dtd">
<svg xmlns="http://www.w3.org/2000/svg" xmlns:xlink="http://www.w3.org/1999/xlink" version="1.1" width="1080" height="1080" viewBox="0 0 1080 1080" xml:space="preserve">
<desc>Created with Fabric.js 5.2.4</desc>
<defs>
</defs>
<rect x="0" y="0" width="100%" height="100%" fill="transparent"></rect>
<g transform="matrix(1 0 0 1 540 540)" id="4ec34ecf-dfa8-4de9-9f92-02fa0dcf3eca"  >
</g>
<g transform="matrix(1 0 0 1 540 540)" id="62049676-d6ee-4db5-9795-f735706cc873"  >
<rect style="stroke: none; stroke-width: 1; stroke-dasharray: none; stroke-linecap: butt; stroke-dashoffset: 0; stroke-linejoin: miter; stroke-miterlimit: 4; fill: rgb(255,255,255); fill-rule: nonzero; opacity: 1; visibility: hidden;" vector-effect="non-scaling-stroke"  x="-540" y="-540" rx="0" ry="0" width="1080" height="1080" />
</g>
<g transform="matrix(1.88 0 0 1.88 540 540)"  >
<g style="" vector-effect="non-scaling-stroke"   >
		<g transform="matrix(1 0 0 1 -54.73 -0.19)"  >
<path style="stroke: none; stroke-width: 1; stroke-dasharray: none; stroke-linecap: butt; stroke-dashoffset: 0; stroke-linejoin: miter; stroke-miterlimit: 4; fill: rgb(0,0,0); fill-rule: nonzero; opacity: 1;" vector-effect="non-scaling-stroke"  transform=" translate(-18.43, -19.02)" d="M 36.33 0.7 C 36.76 0.7 36.87 0.5399999999999999 36.87 0.31999999999999995 C 36.87 0.15999999999999995 36.82 -5.551115123125783e-17 36.39 -5.551115123125783e-17 L 25.42 -5.551115123125783e-17 C 24.990000000000002 -5.551115123125783e-17 24.880000000000003 0.15999999999999995 24.880000000000003 0.37999999999999995 C 24.880000000000003 0.5399999999999999 24.930000000000003 0.7 25.360000000000003 0.7 L 26.220000000000002 0.7 C 29.160000000000004 0.7 30.180000000000003 4.07 27.020000000000003 10.649999999999999 L 17.28 31.04 L 17.17 31.04 L 12.95 3 C 12.629999999999999 0.9700000000000002 12.899999999999999 0.7000000000000002 13.809999999999999 0.7000000000000002 L 15.79 0.7000000000000002 C 16.22 0.7000000000000002 16.33 0.5400000000000001 16.33 0.3200000000000002 C 16.33 0.16000000000000017 16.279999999999998 1.6653345369377348e-16 15.849999999999998 1.6653345369377348e-16 L 0.59 1.6653345369377348e-16 C 0.11 0 0 0.16 0 0.38 C 0 0.54 0.05 0.7 0.48 0.7 L 1.55 0.7 C 2.41 0.7 2.5700000000000003 0.86 2.94 3 L 8.72 37.73 C 8.770000000000001 37.94 8.83 38.05 9.200000000000001 38.05 L 14.39 38.05 C 14.71 38.05 14.82 38 14.93 37.73 L 27.88 10.759999999999998 C 32 2.3 34.36 0.7 36.17 0.7 L 36.33 0.7 Z" stroke-linecap="round" />
</g>
		<g transform="matrix(1 0 0 1 17.55 0)"  >
<path style="stroke: none; stroke-width: 1; stroke-dasharray: none; stroke-linecap: butt; stroke-dashoffset: 0; stroke-linejoin: miter; stroke-miterlimit: 4; fill: rgb(0,0,0); fill-rule: nonzero; opacity: 1;" vector-effect="non-scaling-stroke"  transform=" translate(-90.72, -19.21)" d="M 146.1 29.75 C 145.89 29.75 145.84 29.86 145.78 30.13 C 145.51 31.89 144.93 33.55 144.12 34.73 C 143.64000000000001 35.48 143.05 36.07 142.3 36.07 C 141.55 36.07 141.23000000000002 35.43 141.23000000000002 34.68 C 141.23000000000002 33.98 141.34000000000003 33.18 141.50000000000003 32.43 L 143.11000000000004 23.28 C 143.32000000000005 22.150000000000002 143.54000000000005 20.98 143.54000000000005 19.85 C 143.54000000000005 16.43 140.86000000000004 14.610000000000001 137.70000000000005 14.610000000000001 C 135.13000000000005 14.610000000000001 133.31000000000006 15.63 131.98000000000005 17.44 C 131.07000000000005 18.68 129.61000000000004 24.470000000000002 129.30000000000004 26.03 C 128.96000000000004 27.78 127.80000000000004 33.55 127.00000000000004 34.730000000000004 C 126.51000000000005 35.480000000000004 125.93000000000005 36.07000000000001 125.18000000000005 36.07000000000001 C 124.43000000000005 36.07000000000001 124.11000000000006 35.43000000000001 124.11000000000006 34.68000000000001 C 124.11000000000006 33.980000000000004 124.27000000000005 33.18000000000001 124.37000000000006 32.43000000000001 L 125.93000000000006 23.650000000000006 C 126.09000000000006 22.740000000000006 126.25000000000006 21.830000000000005 126.25000000000006 20.980000000000004 C 126.25000000000006 16.800000000000004 122.77000000000005 14.610000000000003 118.97000000000006 14.610000000000003 C 114.74000000000005 14.610000000000003 112.39000000000006 16.750000000000004 111.16000000000005 20.230000000000004 L 111.10000000000005 20.230000000000004 C 111.10000000000005 19.480000000000004 110.94000000000005 18.620000000000005 110.68000000000005 18.030000000000005 C 109.93000000000005 15.730000000000004 107.79000000000005 14.610000000000005 105.43000000000005 14.610000000000005 C 102.81000000000004 14.610000000000005 101.01000000000005 15.640000000000004 99.65000000000005 17.440000000000005 C 98.60000000000005 18.830000000000005 97.59000000000005 24.610000000000007 97.31000000000004 26.160000000000004 C 97.00000000000004 27.930000000000003 95.53000000000004 33.550000000000004 94.72000000000004 34.730000000000004 C 94.24000000000004 35.480000000000004 93.60000000000004 36.07000000000001 92.85000000000004 36.07000000000001 C 92.10000000000004 36.07000000000001 91.84000000000003 35.43000000000001 91.84000000000003 34.68000000000001 C 91.84000000000003 33.980000000000004 91.94000000000003 33.18000000000001 92.10000000000004 32.43000000000001 L 95.05000000000004 15.730000000000008 C 95.10000000000004 15.410000000000007 94.99000000000004 15.250000000000007 94.67000000000004 15.250000000000007 L 86.81000000000004 15.250000000000007 C 86.38000000000004 15.250000000000007 86.32000000000005 15.360000000000007 86.27000000000004 15.680000000000007 L 85.90000000000003 17.770000000000007 L 85.84000000000003 17.770000000000007 C 85.36000000000003 15.570000000000007 83.22000000000003 14.610000000000007 80.65000000000003 14.610000000000007 C 77.71000000000004 14.610000000000007 74.98000000000003 15.520000000000007 72.57000000000004 17.440000000000005 C 70.86000000000004 18.860000000000007 69.63000000000004 20.660000000000004 68.78000000000003 22.620000000000005 C 68.75000000000003 22.670000000000005 68.73000000000003 22.710000000000004 68.69000000000003 22.780000000000005 C 67.64000000000003 25.350000000000005 64.49000000000002 33.550000000000004 63.690000000000026 34.730000000000004 C 63.21000000000003 35.480000000000004 62.620000000000026 36.07000000000001 61.870000000000026 36.07000000000001 C 61.120000000000026 36.07000000000001 60.800000000000026 35.43000000000001 60.800000000000026 34.68000000000001 C 60.800000000000026 33.980000000000004 60.910000000000025 33.18000000000001 61.07000000000003 32.43000000000001 L 62.68000000000003 23.28000000000001 C 62.89000000000003 22.160000000000007 63.11000000000003 20.980000000000008 63.11000000000003 19.860000000000007 C 63.11000000000003 16.440000000000005 60.43000000000003 14.620000000000006 57.28000000000003 14.620000000000006 C 54.71000000000003 14.620000000000006 52.89000000000003 15.640000000000006 51.550000000000026 17.460000000000008 C 50.64000000000003 18.69000000000001 49.590000000000025 24.460000000000008 49.270000000000024 26.01000000000001 C 49.00000000000002 27.78000000000001 47.370000000000026 33.57000000000001 46.57000000000002 34.75000000000001 C 46.090000000000025 35.50000000000001 45.50000000000002 36.09000000000001 44.75000000000002 36.09000000000001 C 43.950000000000024 36.09000000000001 43.68000000000002 35.45000000000001 43.68000000000002 34.70000000000001 C 43.68000000000002 34.00000000000001 43.79000000000002 33.20000000000001 43.950000000000024 32.45000000000001 L 49.56 0.48 C 49.61 0.15999999999999998 49.510000000000005 0 49.18 0 L 38.32 0 C 37.84 0 37.73 0.11 37.73 0.32 C 37.73 0.48 37.779999999999994 0.5900000000000001 38.209999999999994 0.5900000000000001 L 40.029999999999994 0.5900000000000001 C 40.56999999999999 0.5900000000000001 40.62 0.7000000000000001 40.3 2.62 L 35.54 29.7 C 35.33 30.82 35.11 32.05 35.11 33.18 C 35.11 36.55 37.78 38.43 40.94 38.43 C 43.51 38.43 45.39 37.45 46.67 35.59 C 48.09 33.53 49.4 28.020000000000003 49.72 26.040000000000003 C 49.99 24.76 50.949999999999996 19.380000000000003 51.65 18.310000000000002 C 52.129999999999995 17.560000000000002 52.72 16.970000000000002 53.47 16.970000000000002 C 54.269999999999996 16.970000000000002 54.54 17.610000000000003 54.54 18.360000000000003 C 54.54 19.060000000000002 54.43 19.860000000000003 54.269999999999996 20.550000000000004 L 52.66 29.700000000000003 C 52.449999999999996 30.820000000000004 52.23 32.050000000000004 52.23 33.18 C 52.23 36.55 54.91 38.43 58.059999999999995 38.43 C 60.629999999999995 38.43 62.39999999999999 37.37 63.78999999999999 35.59 C 64.88999999999999 34.17 67.50999999999999 27.240000000000002 67.50999999999999 27.240000000000002 C 67.50999999999999 27.240000000000002 67.32999999999998 28.89 67.32999999999998 29.700000000000003 C 67.32999999999998 35.1 71.12999999999998 38.42 75.77999999999999 38.42 C 79.79999999999998 38.42 82.14999999999999 36.17 83.32999999999998 32.800000000000004 L 83.37999999999998 32.800000000000004 C 83.42999999999998 33.550000000000004 83.58999999999997 34.410000000000004 83.80999999999999 35.00000000000001 C 84.55999999999999 37.300000000000004 86.63999999999999 38.42000000000001 89.10999999999999 38.42000000000001 C 91.57999999999998 38.42000000000001 93.42999999999998 37.35000000000001 94.82999999999998 35.59000000000001 C 96.31999999999998 33.71000000000001 97.46999999999998 27.86000000000001 97.82999999999998 25.88000000000001 C 98.32999999999998 23.210000000000008 99.05999999999999 19.37000000000001 99.75999999999999 18.30000000000001 C 100.24 17.55000000000001 100.88 16.96000000000001 101.63 16.96000000000001 C 102.38 16.96000000000001 102.69999999999999 17.61000000000001 102.69999999999999 18.350000000000012 C 102.69999999999999 19.05000000000001 102.53999999999999 19.850000000000012 102.42999999999999 20.55000000000001 L 99.44 37.40000000000001 C 99.38 37.62000000000001 99.49 37.780000000000015 99.87 37.780000000000015 L 107.79 37.780000000000015 C 108.16000000000001 37.780000000000015 108.27000000000001 37.670000000000016 108.32000000000001 37.40000000000001 L 110.73 23.490000000000013 C 111.42 19.80000000000001 113.46000000000001 16.000000000000014 115.97 16.000000000000014 C 117.2 16.000000000000014 117.78999999999999 17.020000000000014 117.78999999999999 18.350000000000016 C 117.78999999999999 19.680000000000017 117.52 21.140000000000015 117.30999999999999 22.370000000000015 L 116.02999999999999 29.700000000000017 C 115.80999999999999 30.820000000000018 115.53999999999999 32.05000000000002 115.53999999999999 33.180000000000014 C 115.53999999999999 36.55000000000001 118.22 38.420000000000016 121.38 38.420000000000016 C 123.94999999999999 38.420000000000016 125.77 37.40000000000001 127.1 35.59000000000002 C 128.17 34.19000000000002 129.43 28.08000000000002 129.82 26.100000000000016 C 130.07999999999998 24.820000000000014 131.39 19.370000000000015 132.07999999999998 18.300000000000015 C 132.55999999999997 17.550000000000015 133.14999999999998 16.960000000000015 133.89999999999998 16.960000000000015 C 134.70999999999998 16.960000000000015 134.96999999999997 17.610000000000014 134.96999999999997 18.350000000000016 C 134.96999999999997 19.050000000000015 134.86999999999998 19.850000000000016 134.70999999999998 20.550000000000015 L 133.09999999999997 29.700000000000017 C 132.88999999999996 30.820000000000018 132.66999999999996 32.05000000000002 132.66999999999996 33.180000000000014 C 132.66999999999996 36.55000000000001 135.34999999999997 38.420000000000016 138.50999999999996 38.420000000000016 C 141.06999999999996 38.420000000000016 142.88999999999996 37.40000000000001 144.22999999999996 35.59000000000002 C 145.29999999999995 34.19000000000002 145.99999999999997 32.27000000000002 146.31999999999996 30.290000000000017 C 146.36999999999998 29.910000000000018 146.31999999999996 29.750000000000018 146.09999999999997 29.750000000000018 Z M 85.41 19.91 L 83.75999999999999 29.54 C 83.05999999999999 33.28 80.96999999999998 37.03 78.55999999999999 37.03 C 77.27999999999999 37.03 76.47999999999999 35.910000000000004 76.47999999999999 33.550000000000004 C 76.47999999999999 30.230000000000004 77.32999999999998 25.470000000000006 78.29999999999998 21.620000000000005 C 79.20999999999998 17.930000000000003 80.11999999999998 15.410000000000004 82.41999999999999 15.410000000000004 C 84.55999999999999 15.410000000000004 85.78999999999999 17.660000000000004 85.40999999999998 19.910000000000004 Z" stroke-linecap="round" />
</g>
		<g transform="matrix(1 0 0 1 68.07 -14.02)"  >
<path style="stroke: none; stroke-width: 1; stroke-dasharray: none; stroke-linecap: butt; stroke-dashoffset: 0; stroke-linejoin: miter; stroke-miterlimit: 4; fill: rgb(0,0,0); fill-rule: nonzero; opacity: 1;" vector-effect="non-scaling-stroke"  transform=" translate(-141.24, -5.19)" d="M 141.24 9.97 C 143.88 9.97 146.02 7.83 146.02 5.19 C 146.02 2.5500000000000007 143.88000000000002 0.41000000000000014 141.24 0.41000000000000014 C 138.6 0.41000000000000014 136.46 2.5500000000000003 136.46 5.19 C 136.46 7.83 138.6 9.97 141.24 9.97 Z" stroke-linecap="round" />
</g>
		<g transform="matrix(1 0 0 1 -11.95 -14.02)"  >
<path style="stroke: none; stroke-width: 1; stroke-dasharray: none; stroke-linecap: butt; stroke-dashoffset: 0; stroke-linejoin: miter; stroke-miterlimit: 4; fill: rgb(0,0,0); fill-rule: nonzero; opacity: 1;" vector-effect="non-scaling-stroke"  transform=" translate(-61.22, -5.19)" d="M 61.22 9.97 C 63.86 9.97 66 7.83 66 5.19 C 66 2.5500000000000007 63.86 0.41 61.22 0.41 C 58.58 0.41 56.44 2.5500000000000003 56.44 5.19 C 56.44 7.83 58.58 9.97 61.22 9.97 Z" stroke-linecap="round" />
</g>
</g>
</g>
</svg>